<svg xmlns="http://www.w3.org/2000/svg" width="100" height="100">
  <g transform="translate(0 -270.5)">
    <g stroke-width="2" transform="translate(.4 -656.7)">
      <circle cx="49.6" cy="944.4" r="5" fill="#620505" stroke="#620505"/>
      <circle cx="47.3" cy="942.5" r="1" fill="#fff" stroke="#fff"/>
    </g>
    <path fill="#fff" stroke="#620505" stroke-width="2" d="M48 288.5h4V360h-4z"/>
    <path fill="#fff" stroke="#620505" stroke-width="2" d="M28.5 285.7h43v4h-43z"/>
    <circle cx="27.4" cy="287.7" r="6.6" fill="#620505" stroke="#620505" stroke-width="2"/>
    <circle cx="24.3" cy="284.9" r="1.3" fill="#fff" stroke="#fff" stroke-width="2"/>
    <g stroke-width="1.8" transform="translate(40.9 -780.4) scale(1.13001)">
      <circle cx="28.1" cy="945.3" r="5.9" fill="#620505" stroke="#620505"/>
      <circle cx="25.5" cy="942.8" r="1.2" fill="#fff" stroke="#fff"/>
    </g>
    <path fill="#fff" stroke="#620505" stroke-width="2" d="M94 335.5L76 322l18-13.7-5.5 13.7z"/>
    <path fill="#fff" stroke="#620505" stroke-width="2" d="M13.5 320h65v3.7h-65z"/>
    <path fill="#fff" stroke="#620505" stroke-width="2" d="M18.5 329.3l-12.9-7.4 12.9-7.5-4 7.5z"/>
    <path fill="none" stroke="#620505" stroke-width="2" d="M50 285.5v4"/>
  </g>
</svg>